<svg width="30" height="30" viewBox="0 0 30 30" fill="none" xmlns="http://www.w3.org/2000/svg">
<path fill-rule="evenodd" clip-rule="evenodd" d="M15.5 6C12.3051 6 9 8.41112 9 12.4458C9 16.7247 14.975 22.6993 15.2297 22.9514C15.3012 23.0227 15.3987 23.0625 15.5 23.0625C15.6013 23.0625 15.6988 23.0227 15.7703 22.9514C16.025 22.6993 22 16.7247 22 12.4458C22 8.41112 18.6949 6 15.5 6ZM15.5 14.7208C14.2348 14.7208 13.2059 13.7005 13.2059 12.4458C13.2059 11.1912 14.2348 10.1708 15.5 10.1708C16.7652 10.1708 17.7941 11.1912 17.7941 12.4458C17.7941 13.7005 16.7652 14.7208 15.5 14.7208Z" fill="#161C2D"/>
</svg>
